<svg width="31" height="27" viewBox="0 0 31 27" fill="none" xmlns="http://www.w3.org/2000/svg">
<path d="M1.10512 0.368596C0.560256 0.368596 0.118164 0.811944 0.118164 1.35836C0.118164 1.90477 0.560256 2.34812 1.10512 2.34812H4.90887L8.30138 18.4008C8.43503 19.0052 8.83085 19.5078 9.32946 19.504H25.7788C26.3005 19.5117 26.7799 19.0374 26.7799 18.5142C26.7799 17.991 26.3006 17.5167 25.7788 17.5244H10.1315L9.71003 15.5449H27.095C27.5371 15.541 27.9547 15.2047 28.0511 14.7716L30.354 4.874C30.4825 4.29921 29.9852 3.6716 29.3979 3.66774H7.21171L6.6771 1.15209C6.58329 0.712638 6.15921 0.36853 5.7107 0.36853L1.10512 0.368596ZM7.623 5.64733H12.7634L13.2569 8.61662H8.25005L7.623 5.64733ZM14.7785 5.64733H20.9881L20.4946 8.61662H15.2719L14.7785 5.64733ZM23.0031 5.64733H28.1537L27.4649 8.61662H22.5097L23.0031 5.64733ZM8.67181 10.5961H13.5862L14.0797 13.5654H9.29919L8.67181 10.5961ZM15.6009 10.5961H20.1656L19.6721 13.5654H16.0944L15.6009 10.5961ZM22.1807 10.5961H27.0023L26.3135 13.5654H21.6872L22.1807 10.5961ZM12.6197 20.1639C10.8141 20.1639 9.32979 21.6524 9.32979 23.4631C9.32979 25.2738 10.8141 26.7623 12.6197 26.7623C14.4252 26.7623 15.9095 25.2738 15.9095 23.4631C15.9095 21.6524 14.4252 20.1639 12.6197 20.1639ZM22.4892 20.1639C20.6837 20.1639 19.1994 21.6524 19.1994 23.4631C19.1994 25.2738 20.6837 26.7623 22.4892 26.7623C24.2948 26.7623 25.7791 25.2738 25.7791 23.4631C25.7791 21.6524 24.2948 20.1639 22.4892 20.1639ZM12.6197 22.1434C13.3586 22.1434 13.9356 22.722 13.9356 23.4631C13.9356 24.2041 13.3586 24.7828 12.6197 24.7828C11.8807 24.7828 11.3037 24.2041 11.3037 23.4631C11.3037 22.722 11.8807 22.1434 12.6197 22.1434ZM22.4892 22.1434C23.2282 22.1434 23.8052 22.722 23.8052 23.4631C23.8052 24.2041 23.2282 24.7828 22.4892 24.7828C21.7503 24.7828 21.1733 24.2041 21.1733 23.4631C21.1733 22.722 21.7503 22.1434 22.4892 22.1434Z" fill="#F85E5E"/>
</svg>
