<?xml version="1.0" encoding="iso-8859-1"?>
<!-- Generator: Adobe Illustrator 19.0.0, SVG Export Plug-In . SVG Version: 6.00 Build 0)  -->
<svg xmlns="http://www.w3.org/2000/svg" xmlns:xlink="http://www.w3.org/1999/xlink" version="1.1" id="Capa_1" x="0px" y="0px" viewBox="0 0 512 512" style="enable-background:new 0 0 512 512;" xml:space="preserve" width="512" height="512">
<g>
	<path d="M19.588,0v512h128.079v-39.667c0-28.673,23.327-52,52-52c28.673,0,52,23.327,52,52V512h240.744V0H19.588z M462.412,482   H281.668v-9.667c0-45.215-36.785-82-82-82c-45.215,0-82,36.785-82,82V482H49.588V30h412.823V482z"/>
	<path d="M336,239c46.501,0,84.333-37.832,84.333-84.333S382.501,70.333,336,70.333s-84.333,37.832-84.333,84.334S289.5,239,336,239   z M336,100.333c29.959,0,54.333,24.374,54.333,54.334S365.96,209,336,209c-29.959,0-54.333-24.374-54.333-54.333   S306.042,100.333,336,100.333z"/>
	<path d="M165.333,313.667c28.857,0,52.334-23.477,52.334-52.333c0-28.856-23.477-52.333-52.334-52.333   c-28.856,0-52.333,23.477-52.333,52.333C113.001,290.19,136.477,313.667,165.333,313.667z M165.333,239   c12.315,0,22.334,10.019,22.334,22.333c0,12.315-10.019,22.333-22.334,22.333c-12.314,0-22.333-10.019-22.333-22.333   C143.001,249.019,153.019,239,165.333,239z"/>
	<rect x="119.334" y="91.588" transform="matrix(-0.0052 1 -1 -0.0052 241.6201 -27.1891)" width="30" height="29.999"/>
	<rect x="309.333" y="304.921" transform="matrix(-1 -0.0052 0.0052 -1 646.9862 641.5379)" width="30" height="30"/>
	<rect x="364.667" y="379.745" transform="matrix(-1 -0.0052 0.0052 -1 757.2679 791.4674)" width="30" height="30"/>
</g>















</svg>
