<?xml version="1.0"?>
<svg xmlns="http://www.w3.org/2000/svg" xmlns:xlink="http://www.w3.org/1999/xlink" version="1.1" id="Capa_1" x="0px" y="0px" viewBox="0 0 58.048 58.048" style="enable-background:new 0 0 58.048 58.048;" xml:space="preserve" width="512px" height="512px" class=""><g><path d="M57.178,26.494l-0.028-0.004c-0.011-0.002-0.021-0.009-0.032-0.01l-5.341-0.702l-0.002-10.454  c0-0.007,0.003-0.016,0.003-0.016c0-0.018-0.003-0.028-0.003-0.04v-0.025c-0.001-0.031-0.008-0.06-0.01-0.091  c-0.007-0.11-0.016-0.22-0.038-0.328c-0.005-0.024-0.014-0.048-0.019-0.072c-0.027-0.119-0.06-0.237-0.105-0.354  c-0.004-0.009-0.009-0.018-0.012-0.027c-1.639-4.134-14.051-6.848-25.701-6.848C13.386,7.524,0,10.649,0,15.301  c0,0.015,0.004,0.03,0.004,0.044L0,33.524c0,4.321,11.907,8.111,25.481,8.111l0.53-0.004c0.548-0.006,0.988-0.452,0.988-1v-6.728  c1.079,0.359,2.654,0.887,4,1.34v8.281c0,0.234,0.082,0.461,0.231,0.641l5,6c0.01,0.012,0.026,0.016,0.036,0.028  c0.011,0.012,0.016,0.029,0.027,0.041c0.057,0.056,0.128,0.089,0.195,0.13c0.038,0.023,0.069,0.055,0.11,0.073  c0.125,0.055,0.26,0.088,0.4,0.088c0.002,0,0.003,0,0.005,0c8.113-0.038,15.725-0.986,20.36-2.536  c0.407-0.136,0.683-0.519,0.683-0.948V27.485C58.048,26.983,57.676,26.559,57.178,26.494z M37.498,28.963l-2.712-3.134l11.076,1.194  l0.007,0.001l0.001,0l2.236,0.293l3.453,0.454C47.58,28.485,42.667,28.91,37.498,28.963z M49.776,25.515L47,25.15v-3.829  c1.081-0.434,2.021-1.136,2.775-1.955L49.776,25.515z M27,31.795v-9.271c0-0.011-0.004-0.021-0.005-0.033  c-0.001-0.036-0.011-0.07-0.015-0.106c-0.008-0.054-0.012-0.109-0.028-0.162c-0.013-0.043-0.038-0.083-0.057-0.124  c-0.019-0.041-0.032-0.084-0.056-0.122l-3.386-5.199L45,21.334v3.553l-12.822-1.685c-0.014-0.002-0.028,0.002-0.042,0.001  l-0.006-0.001c-0.031-0.004-0.061,0.003-0.092,0.001c-0.048-0.002-0.096-0.002-0.144,0.002c-0.055,0.006-0.107,0.018-0.16,0.033  c-0.028,0.008-0.056,0.007-0.084,0.017c-0.018,0.007-0.032,0.02-0.049,0.028c-0.048,0.021-0.091,0.048-0.136,0.076  c-0.042,0.027-0.082,0.053-0.119,0.085c-0.037,0.032-0.069,0.069-0.101,0.107c-0.033,0.039-0.064,0.077-0.091,0.12  c-0.01,0.017-0.026,0.029-0.035,0.046c-0.015,0.029-0.019,0.06-0.032,0.09c-0.019,0.046-0.037,0.091-0.05,0.14  c-0.013,0.052-0.019,0.104-0.024,0.157C31.011,24.135,31,24.163,31,24.194v0.33v8.608C28.86,32.413,27.676,32.015,27,31.795z   M33,34.524v-7.646l3,3.467v16.418l-3-3.601V34.524z" data-original="#000000" class="active-path" data-old_color="#F85E5E" fill="#F45C5C"/></g> </svg>
